# xmcd
#
# Track frame offsets:
#	150
#	10072
#	24290
#	33825
#	44857
#	55095
#	68227
#	77535
#	87582
#	99580
#	109285
#	118910
#	131820
#	142220
#	150835
#	160670
#	174067
#	183220
#	196185
#	205095
#
# Disc length: 2906 seconds
#
# Revision: 0
# Processed by: cddbd v1.5.1PL0 Copyright (c) Steve Scherf et al.
# Submitted via: EasyCDDAExtractor 7.5.2.1
#
DISCID=040b5814
DTITLE=Les Paul and Mary Ford - Their Greatest Hits and Finest Performances (D
DTITLE=isc 1)
DYEAR=1900
DGENRE=
TTITLE0=The World is Waiting for the Sunrise
TTITLE1=Tenesee Waltz
TTITLE2=Tiger Rag
TTITLE3=My Baby's Coming Home
TTITLE4=I'm Sitting On Top of the World
TTITLE5=I'm a Fool to Care
TTITLE6=Bye Bye Blues
TTITLE7=Take Me In Your Arms and Hold Me
TTITLE8=Hummingbird
TTITLE9=Whither Thou Goest
TTITLE10=How High the Moon
TTITLE11=I'm Confessin' (That I Love You)
TTITLE12=Mockin' Bird
TTITLE13=Just One More Chance
TTITLE14=In the Good Old Summertime
TTITLE15=Smoke Rings
TTITLE16=Johnny (is the Boy for Me)
TTITLE17=I Really Don't Want to Know
TTITLE18=Don'tcha Hear Them Bells
TTITLE19=Vaya Con Dios (May God Be With You)
EXTD=
EXTT0=
EXTT1=
EXTT2=
EXTT3=
EXTT4=
EXTT5=
EXTT6=
EXTT7=
EXTT8=
EXTT9=
EXTT10=
EXTT11=
EXTT12=
EXTT13=
EXTT14=
EXTT15=
EXTT16=
EXTT17=
EXTT18=
EXTT19=
PLAYORDER=
